<?xml version="1.0" standalone="no"?>
<!DOCTYPE svg PUBLIC "-//W3C//DTD SVG 20010904//EN"
 "http://www.w3.org/TR/2001/REC-SVG-20010904/DTD/svg10.dtd">
<svg version="1.0" xmlns="http://www.w3.org/2000/svg"
 width="3000.000000pt" height="2000.000000pt" viewBox="0 0 3000.000000 2000.000000"
 preserveAspectRatio="xMidYMid meet">
<metadata>
Created by potrace 1.16, written by Peter Selinger 2001-2019
</metadata>
<g transform="translate(0.000000,2000.000000) scale(0.100000,-0.100000)"
fill="#000000" stroke="none">
<path d="M23280 16699 c-184 -48 -332 -167 -414 -333 -59 -119 -66 -164 -66
-411 0 -457 31 -1992 41 -2049 42 -238 243 -406 483 -406 151 1 245 39 346
140 73 72 111 137 135 226 19 69 20 301 5 1099 -5 270 -10 565 -10 658 l0 167
-76 0 -76 0 6 -232 c4 -128 11 -536 17 -906 8 -527 8 -684 -1 -725 -38 -160
-155 -267 -309 -283 -162 -17 -317 87 -367 249 -20 65 -21 102 -40 1274 -13
860 -13 958 1 1019 53 231 248 386 485 386 255 0 463 -185 494 -442 3 -25 13
-536 22 -1135 16 -1008 16 -1096 1 -1163 -49 -216 -211 -392 -429 -468 -100
-35 -246 -43 -352 -20 -193 43 -366 178 -452 351 -58 118 -62 159 -69 685 -3
261 -8 521 -11 578 l-6 102 -70 0 -70 0 7 -487 c8 -621 15 -744 48 -846 36
-111 98 -210 191 -303 91 -91 184 -150 303 -193 467 -171 983 132 1063 623 6
36 2 464 -10 1184 -22 1243 -18 1190 -88 1332 -49 101 -168 221 -269 273 -146
76 -312 96 -463 56z"/>
<path d="M7494 16146 c-92 -21 -191 -68 -379 -179 -324 -191 -345 -226 -429
-707 -35 -198 -133 -605 -231 -960 -71 -257 -95 -381 -102 -517 -10 -189 31
-354 121 -497 41 -64 44 -67 50 -43 5 20 -2 39 -27 79 -117 184 -138 375 -73
688 34 164 133 566 135 546 1 -5 -15 -86 -34 -180 -97 -485 -97 -761 2 -995
l19 -44 43 134 c142 441 336 765 561 935 46 34 185 101 230 109 l35 6 -3 -80
c-3 -75 -2 -83 27 -124 83 -121 234 -232 330 -244 41 -5 48 -3 59 18 19 38 32
125 32 223 0 50 5 114 12 143 l12 52 61 5 c33 3 111 8 174 10 63 3 115 7 117
9 2 2 -12 40 -31 85 -19 45 -30 82 -25 82 27 0 137 151 124 171 -4 7 -3 9 3 6
12 -8 46 93 47 140 1 18 5 33 10 33 17 0 -1 299 -24 403 -14 66 -18 102 -12
110 26 31 -42 219 -112 315 -82 111 -179 175 -316 207 -41 10 -107 28 -145 41
-93 30 -184 37 -261 20z m-159 -681 c61 -19 118 -35 128 -35 16 0 16 -2 2 -30
-14 -27 -18 -29 -38 -18 -12 6 -67 20 -121 30 -55 10 -101 20 -104 22 -6 7 8
66 16 66 4 0 57 -16 117 -35z m34 -94 c75 -6 76 -6 79 -35 3 -28 2 -29 -28
-22 -18 3 -79 6 -136 6 l-104 0 0 36 0 35 56 -7 c31 -3 91 -9 133 -13z"/>
<path d="M11425 15656 c-16 -7 -48 -29 -70 -49 l-40 -35 20 -23 c11 -13 13
-18 5 -12 -21 16 -32 17 -41 1 -7 -10 -9 -10 -10 0 -1 6 -2 16 -3 22 -2 19
-59 71 -72 66 -8 -3 -14 -1 -14 4 0 6 -18 10 -40 10 -22 0 -40 -5 -40 -11 0
-5 -4 -8 -9 -4 -13 7 -82 -26 -75 -37 3 -4 -1 -6 -8 -3 -13 5 -64 -32 -67 -50
-2 -5 -5 -12 -8 -15 -4 -3 -3 1 1 8 12 21 -4 14 -56 -24 -37 -28 -46 -39 -36
-46 9 -6 6 -7 -10 -3 -15 4 -24 1 -28 -9 -3 -9 -12 -16 -18 -16 -18 0 -58 -45
-49 -55 5 -4 2 -5 -5 -1 -15 9 -44 -12 -36 -25 3 -5 1 -8 -5 -7 -6 2 -21 -8
-33 -22 -13 -14 -18 -19 -13 -10 9 13 8 13 -8 1 -10 -8 -14 -18 -10 -22 4 -4
75 -25 157 -45 l148 -38 -7 -60 c-3 -34 -8 -71 -9 -83 -1 -12 -7 -28 -13 -35
-9 -11 -26 -52 -28 -68 0 -3 -4 -11 -8 -17 -5 -7 -6 -17 -3 -22 4 -5 1 -11 -5
-13 -7 -2 -12 -18 -13 -35 0 -17 -4 -29 -7 -27 -8 5 -27 -61 -36 -121 -5 -38
-3 -46 7 -40 8 5 11 4 7 -2 -10 -16 18 -65 45 -80 51 -28 134 -11 195 41 l31
26 0 -59 c0 -109 48 -157 153 -149 71 5 123 38 176 109 37 50 38 50 41 22 5
-48 34 -104 63 -119 39 -20 103 -17 148 6 51 25 94 79 134 162 18 37 36 68 41
68 4 0 6 -7 2 -15 -3 -8 -1 -15 5 -15 6 0 8 -9 4 -20 -7 -22 33 -70 58 -70 32
0 91 33 128 73 37 38 97 137 84 137 -3 0 1 10 9 23 17 27 34 80 40 127 3 19
10 60 16 90 20 107 1 416 -24 393 -5 -4 -6 -3 -2 4 8 14 -15 62 -46 98 -17 19
-24 22 -35 13 -11 -9 -13 -8 -11 1 5 24 -77 24 -128 1 -26 -11 -48 -19 -49
-18 -1 2 -12 20 -24 41 -14 23 -29 36 -37 33 -8 -3 -11 0 -8 8 6 17 -41 34
-83 31 -18 -1 -40 -3 -49 -4 -8 0 -28 -13 -43 -28 -57 -56 -72 -68 -66 -51 4
11 -7 32 -34 60 -32 36 -47 44 -78 46 -21 1 -51 -5 -68 -12z"/>
<path d="M7395 13785 c3 -49 14 -220 25 -379 12 -159 18 -292 13 -295 -14 -12
-113 -39 -203 -56 -47 -8 -98 -20 -115 -25 -16 -5 -57 -12 -90 -16 -33 -3 -67
-10 -76 -15 -9 -4 -45 -11 -80 -15 -35 -3 -67 -8 -70 -10 -38 -22 -279 -49
-279 -32 0 4 47 155 105 334 58 180 104 328 102 331 -2 2 -14 -19 -26 -47 -24
-55 -37 -66 -27 -22 6 26 6 26 -9 8 -8 -11 -15 -39 -15 -62 0 -23 -16 -86 -36
-140 -40 -112 -114 -377 -114 -410 0 -21 2 -21 40 -12 23 6 44 8 47 4 3 -3
-10 -90 -30 -193 -36 -186 -53 -290 -61 -388 -3 -27 -8 -73 -12 -102 l-7 -52
-70 -3 -69 -3 -45 -100 c-110 -245 -187 -499 -218 -717 -30 -218 -16 -516 34
-693 19 -66 19 -76 6 -185 -34 -271 -175 -1481 -181 -1548 -4 -40 -10 -74 -14
-77 -3 -2 -34 30 -69 71 l-62 75 6 112 c3 62 11 152 16 200 6 49 9 90 7 93
-10 9 -48 -236 -48 -306 l0 -75 -146 150 c-152 156 -170 167 -49 30 39 -44
106 -122 149 -172 l77 -93 -58 0 c-33 0 -133 -7 -224 -15 -170 -16 -241 -29
-109 -20 146 10 366 14 392 7 14 -4 46 -32 71 -63 44 -54 46 -59 39 -100 l-7
-44 -55 -2 c-86 -4 -284 -34 -295 -45 -7 -7 -3 -8 10 -4 27 8 328 26 334 21 2
-3 -8 -119 -22 -258 -24 -225 -48 -480 -75 -785 -8 -94 -14 -112 -55 -195 -50
-102 -195 -347 -332 -562 -138 -218 -125 -214 -125 -31 l0 156 -225 0 -225 0
-4 23 c-3 12 -10 138 -15 280 -11 250 -12 259 -34 278 -43 36 -42 47 -27 -267
5 -115 12 -233 14 -261 l5 -53 -140 0 c-104 0 -139 3 -139 12 0 7 23 170 51
362 l51 349 -21 20 c-16 17 -21 18 -25 6 -5 -14 -106 -716 -106 -738 0 -7 -24
-11 -66 -11 l-66 0 3 533 c2 475 1 535 -14 562 -15 28 -16 -7 -17 -532 l0
-563 -77 0 -78 0 -38 308 c-21 169 -51 401 -68 517 l-30 209 41 151 c67 242
122 354 204 413 24 18 47 32 50 32 3 0 6 -11 6 -25 0 -23 2 -24 25 -13 16 7
25 19 25 35 0 21 4 23 50 23 60 0 146 -28 213 -70 53 -33 57 -34 57 -21 0 5
-28 28 -62 50 -68 45 -169 81 -226 81 l-35 0 6 118 c4 64 14 306 23 537 9 231
21 424 25 429 11 12 52 -74 92 -196 46 -138 89 -337 122 -563 24 -162 35 -216
35 -174 0 8 9 32 21 53 l20 38 -26 162 c-34 211 -69 367 -112 496 -40 120 -60
162 -114 241 l-38 57 10 103 c14 139 43 288 68 343 47 107 154 113 251 15 44
-45 45 -39 4 18 -35 46 -87 75 -138 75 -119 0 -170 -91 -212 -380 -21 -145
-16 -138 -70 -101 -54 37 -149 69 -204 69 -92 0 -204 -40 -304 -109 -63 -44
-152 -128 -144 -136 4 -4 44 20 89 54 98 74 159 106 242 127 119 31 228 4 322
-78 l47 -41 -6 -56 c-3 -31 -8 -112 -11 -181 -3 -69 -12 -271 -20 -450 -8
-179 -15 -359 -15 -401 l0 -76 -42 -19 c-104 -46 -187 -170 -248 -374 -17 -58
-34 -112 -37 -120 -3 -9 -12 9 -22 40 -30 95 -57 137 -106 166 -89 52 -193 25
-268 -69 -65 -81 -61 -88 13 -22 28 24 65 52 82 61 75 39 170 9 208 -66 23
-46 60 -174 60 -211 0 -14 -18 -103 -40 -197 -52 -226 -103 -498 -132 -704
l-23 -168 -232 0 -233 0 0 -245 0 -245 69 0 69 0 6 -62 c4 -35 18 -250 31
-478 14 -228 36 -599 50 -825 14 -225 25 -416 25 -422 0 -10 -76 -13 -327 -16
-237 -2 -181 -3 200 -5 290 -1 527 -5 527 -9 0 -5 -9 -23 -21 -42 -11 -18 -19
-34 -17 -36 2 -1 29 -17 61 -36 52 -31 74 -59 46 -59 -6 0 -8 -7 -5 -17 4 -10
4 -14 -1 -10 -6 7 -16 -7 -55 -83 -7 -14 -16 -27 -20 -30 -14 -11 -118 -228
-118 -247 0 -18 64 -74 150 -133 12 -8 48 -35 80 -60 68 -53 176 -133 232
-173 22 -15 44 -24 50 -21 6 4 8 2 4 -4 -7 -12 39 -52 61 -52 8 0 11 -4 8 -10
-3 -5 1 -10 9 -10 9 0 16 -5 16 -11 0 -6 7 -9 15 -5 8 3 14 0 12 -7 -1 -7 6
-11 15 -11 10 1 16 -2 13 -6 -2 -4 23 -27 58 -51 34 -23 80 -58 101 -76 21
-18 43 -30 47 -27 5 3 9 0 9 -6 0 -6 8 -13 17 -17 10 -3 35 -20 56 -36 42 -33
51 -39 232 -161 66 -44 125 -84 130 -89 6 -4 30 -20 55 -36 25 -16 84 -54 132
-85 49 -32 92 -54 98 -51 5 3 10 -1 10 -10 0 -9 4 -14 9 -10 5 3 12 1 16 -4 9
-16 159 -97 220 -120 67 -25 103 -27 112 -4 8 20 -14 105 -30 115 -7 4 -8 8
-3 8 6 0 1 7 -10 16 -10 8 -12 12 -4 8 8 -4 3 6 -11 22 -14 16 -45 56 -69 89
-23 33 -48 65 -54 70 -6 6 -16 19 -23 30 -6 11 -16 19 -23 17 -6 -1 -9 2 -6 7
3 5 -3 20 -15 35 -19 25 -40 29 -66 13 -6 -4 -15 -3 -18 3 -4 6 -3 10 2 9 4
-1 11 0 16 1 8 3 24 7 34 9 3 0 -4 10 -16 20 -12 11 -21 21 -20 23 6 8 -34 57
-42 52 -5 -3 -8 -2 -7 3 5 13 -86 124 -98 119 -6 -2 -11 2 -11 10 0 7 3 11 7
9 3 -2 14 9 24 26 9 16 15 29 12 29 -3 0 6 16 19 36 14 20 25 41 25 45 0 18
33 8 87 -27 30 -19 56 -34 58 -32 14 15 538 971 572 1042 l17 36 613 0 613 0
0 -630 c0 -623 0 -630 20 -630 18 0 20 -7 21 -77 0 -43 0 -108 -1 -145 l-1
-67 53 -15 c29 -8 116 -27 193 -41 77 -14 156 -30 176 -35 78 -21 266 -53 308
-53 24 0 38 -3 31 -7 -7 -4 19 -11 56 -15 38 -4 76 -11 85 -15 8 -5 38 -10 65
-13 28 -2 56 -7 62 -11 7 -4 17 -4 22 -1 6 4 16 2 23 -3 7 -5 37 -13 67 -16
30 -3 80 -10 110 -16 76 -14 280 -47 368 -60 40 -6 82 -8 94 -5 12 4 18 3 15
-2 -16 -25 467 -55 533 -33 58 19 56 54 -9 111 -62 56 -90 75 -104 71 -7 -2
-9 0 -5 3 4 4 -10 19 -30 33 -32 22 -46 27 -85 31 -5 1 -6 5 -2 10 4 8 -17 20
-45 26 -3 1 -34 15 -69 33 -35 17 -68 29 -74 25 -5 -3 -7 -2 -4 4 8 12 -90 56
-106 47 -7 -4 -8 -3 -4 2 5 5 -15 20 -44 34 l-53 25 2 60 c5 112 6 115 64 115
l51 0 -7 478 c-3 262 -9 546 -13 631 l-6 154 2554 -4 c2426 -4 2554 -3 2557
14 3 16 -124 17 -2551 17 l-2554 0 -7 238 c-3 130 -11 422 -16 647 -11 441
-36 1178 -46 1391 l-7 132 -111 26 c-394 92 -859 200 -1681 392 -60 14 -115
27 -122 29 -7 2 9 51 47 137 305 702 552 1603 731 2664 30 176 46 251 55 251
7 0 12 -5 11 -11 -1 -6 4 -10 11 -9 6 2 12 -2 12 -7 0 -6 6 -10 13 -10 6 -1
34 -16 62 -35 27 -18 53 -31 59 -28 5 3 6 1 3 -4 -4 -6 1 -17 10 -24 14 -12
16 -12 8 1 -5 8 12 -3 36 -25 50 -44 137 -106 144 -102 2 1 12 -8 21 -21 9
-13 22 -21 30 -18 7 3 16 0 20 -6 5 -7 2 -8 -7 -4 -8 4 -3 -2 10 -13 12 -12
27 -18 32 -15 5 3 9 1 9 -5 0 -6 53 -45 118 -88 64 -43 119 -81 122 -84 10
-13 162 -90 168 -85 3 4 16 -1 28 -9 40 -26 164 -54 265 -61 112 -7 199 12
232 49 33 38 49 66 43 76 -10 16 5 40 21 34 9 -4 14 -2 10 3 -3 6 8 10 27 10
85 0 195 100 181 165 -5 20 -12 29 -20 25 -9 -3 -12 0 -9 8 3 8 -12 24 -38 39
-33 20 -38 27 -23 28 11 1 24 1 29 0 19 -4 116 21 116 30 0 5 6 9 13 9 23 0
57 45 63 82 5 31 2 40 -31 72 -20 21 -60 47 -88 59 l-50 23 61 17 c82 23 148
82 137 124 -3 15 -12 34 -18 42 -19 23 -75 42 -105 35 -18 -4 -23 -3 -14 4 10
6 -8 11 -56 16 -38 4 -105 16 -148 27 -44 12 -89 22 -101 22 -11 1 -19 5 -16
10 2 4 -3 7 -11 7 -9 0 -16 5 -16 11 0 6 -7 8 -16 5 -8 -3 -12 -2 -9 4 3 6 1
11 -4 11 -20 3 -26 5 -66 30 -22 13 -42 24 -45 23 -3 0 -14 8 -24 18 -11 10
-34 23 -50 29 -39 15 -80 64 -72 86 9 23 88 11 228 -34 62 -20 125 -37 140
-37 14 -1 24 -4 21 -8 -2 -5 -1 -8 4 -8 4 0 37 -5 73 -10 79 -11 134 1 156 35
14 21 14 26 -4 62 -11 21 -31 48 -44 60 -29 27 -192 128 -184 114 4 -7 1 -8
-8 -5 -9 3 -14 9 -11 13 5 10 -154 77 -173 73 -9 -2 -11 1 -6 10 5 7 -4 5 -21
-6 -17 -10 -24 -13 -17 -5 16 18 15 29 -3 29 -9 0 -28 6 -43 14 -68 35 -182
48 -549 62 -86 4 -96 6 -140 37 -67 46 -147 92 -155 89 -5 -1 -8 3 -8 10 0 6
-3 8 -7 5 -3 -4 -27 8 -52 26 -25 18 -65 44 -88 57 -24 13 -43 26 -43 29 0 3
9 75 20 160 11 85 19 155 17 156 -1 1 -147 6 -324 12 l-321 9 -54 35 c-38 26
-53 42 -54 60 0 13 -3 106 -7 205 l-5 181 61 6 c34 3 128 21 209 41 81 19 198
46 260 58 118 23 124 25 117 33 -18 17 -313 -38 -534 -100 -49 -14 -95 -25
-101 -25 -8 0 -14 49 -18 158 -4 86 -8 182 -9 213 l-3 56 50 9 51 9 -3 65 c-3
77 -20 281 -29 365 -4 33 -6 112 -6 175 0 74 -2 99 -6 70 l-7 -45 -11 75 -12
75 4 -90z m-3390 -6046 c21 -152 85 -690 85 -719 0 -6 -50 -10 -141 -10 l-142
0 7 63 c11 94 62 391 101 577 49 238 56 272 61 267 2 -2 15 -82 29 -178z
m3340 -1827 l8 -1192 -601 0 c-420 0 -602 4 -602 11 0 6 66 135 146 287 315
600 654 1295 829 1702 71 165 177 442 191 500 8 32 9 28 15 -40 4 -41 10 -612
14 -1268z"/>
<path d="M25715 13080 c-121 -27 -269 -60 -330 -74 -60 -14 -216 -48 -345 -76
-253 -56 -320 -79 -414 -143 -344 -232 -453 -712 -243 -1072 107 -184 295
-325 498 -376 106 -26 242 -26 369 0 105 22 151 32 555 121 154 34 330 72 390
85 61 13 265 58 455 100 190 41 419 91 509 111 243 52 317 84 423 182 149 138
216 306 205 510 -9 169 -68 303 -185 419 -135 134 -316 199 -508 182 -43 -4
-349 -66 -679 -139 -330 -72 -784 -172 -1010 -221 -420 -91 -497 -112 -575
-158 -60 -34 -149 -126 -182 -188 -150 -274 -3 -618 301 -707 106 -31 199 -22
522 49 530 116 970 213 1219 266 135 29 247 54 249 55 2 2 -2 32 -10 69 -10
51 -17 65 -31 65 -9 0 -163 -32 -340 -71 -1491 -326 -1419 -311 -1495 -306
-176 10 -305 134 -329 315 -7 53 8 136 33 186 26 51 106 127 165 157 56 28
119 43 803 193 88 19 255 56 370 81 1062 233 1049 231 1168 200 220 -57 377
-261 377 -488 0 -123 -55 -251 -147 -344 -115 -116 -35 -93 -1298 -369 -165
-36 -370 -81 -455 -99 -552 -122 -621 -135 -692 -135 -174 1 -336 75 -463 212
-194 209 -229 509 -92 773 48 92 176 216 268 260 79 37 176 60 1177 277 31 7
51 16 49 22 -3 7 -10 37 -17 69 -8 43 -16 57 -28 56 -9 0 -116 -23 -237 -49z"/>
<path d="M4796 10260 c4 -8 28 -41 52 -73 24 -32 42 -60 40 -63 -3 -2 -49 3
-103 11 -53 9 -99 14 -101 12 -2 -2 49 -15 113 -28 l117 -24 58 -80 c32 -44
58 -83 58 -87 0 -5 -17 -9 -37 -10 -38 -1 -38 -1 7 -7 45 -6 45 -6 133 -136
48 -71 87 -126 87 -122 0 12 -38 83 -76 142 -32 50 -34 60 -36 142 l-2 88 -5
-75 -6 -75 -49 70 -49 70 2 115 c1 63 0 112 -2 110 -3 -3 -8 -45 -11 -95 -4
-49 -8 -91 -10 -92 -1 -2 -32 34 -68 79 -73 92 -125 151 -112 128z"/>
<path d="M3191 9653 c-6 -93 -11 -217 -11 -277 l0 -108 -64 -72 c-34 -39 -114
-134 -175 -211 -62 -77 -115 -139 -119 -138 -3 1 -7 15 -9 30 -7 68 -47 323
-50 319 -4 -3 24 -314 32 -359 5 -29 -14 -58 -212 -321 -91 -120 -58 -93 44
36 54 68 103 129 110 136 8 8 61 13 180 14 l168 2 -162 6 -163 5 124 150 124
150 119 1 c447 7 478 8 398 14 -44 3 -170 7 -280 8 -109 2 -201 4 -203 7 -3 3
211 261 314 378 23 25 29 27 112 28 134 1 285 9 290 14 3 3 -72 5 -166 5 -94
0 -173 3 -176 8 -2 4 38 55 90 112 51 58 94 109 94 113 0 18 -42 -18 -120
-104 -47 -51 -96 -105 -110 -119 -14 -14 -54 -58 -89 -98 -35 -40 -67 -70 -70
-66 -3 3 -4 118 -3 255 2 137 2 249 -1 249 -2 0 -9 -75 -16 -167z"/>
<path d="M5089 9517 c-65 -19 -132 -60 -174 -109 -69 -81 -134 -242 -160 -395
-6 -39 -5 -43 14 -43 22 0 22 1 41 105 66 359 292 509 563 374 64 -32 78 -22
20 14 -93 58 -215 79 -304 54z"/>
<path d="M5022 8502 c-12 -48 -29 -135 -38 -193 l-18 -106 -105 135 c-134 170
-141 179 -141 170 0 -4 28 -45 62 -90 74 -98 280 -419 274 -425 -3 -3 -69 0
-148 6 -79 7 -177 14 -218 17 -41 3 -82 8 -90 10 -9 3 -11 2 -5 -4 6 -4 119
-23 253 -42 l242 -33 50 -81 50 -81 -162 -5 c-90 -3 -133 -7 -97 -8 36 -1 113
-5 171 -8 l104 -7 123 -198 c116 -188 137 -217 146 -207 4 4 -202 367 -258
455 -33 51 -33 57 -2 208 13 66 23 121 21 122 -1 1 -17 -49 -35 -112 -18 -63
-36 -115 -40 -115 -3 0 -43 59 -89 130 l-83 129 16 123 c8 68 22 161 31 207 8
46 13 85 11 87 -2 2 -13 -36 -25 -84z"/>
<path d="M3280 8291 c0 -20 51 -212 62 -234 7 -13 -2 -33 -38 -83 l-47 -66
-28 68 c-33 83 -36 78 -9 -18 l20 -72 -59 -90 c-77 -120 -144 -235 -220 -378
-67 -126 -78 -164 -15 -50 21 37 61 103 89 147 l52 80 131 30 c72 16 129 31
128 33 -2 1 -54 -4 -117 -12 -62 -8 -114 -14 -116 -12 -3 3 125 193 165 244
l30 38 176 34 c96 19 174 36 172 38 -2 2 -68 -6 -146 -17 -78 -12 -150 -21
-161 -21 -15 0 1 27 72 125 130 181 125 197 -11 37 l-45 -53 -42 123 c-24 68
-43 117 -43 109z"/>
</g>
</svg>
