<?xml version="1.0" encoding="utf-8"?>
<!-- Generator: Adobe Illustrator 27.5.0, SVG Export Plug-In . SVG Version: 6.00 Build 0)  -->
<svg version="1.1" xmlns="http://www.w3.org/2000/svg" xmlns:xlink="http://www.w3.org/1999/xlink" x="0px" y="0px"
	 viewBox="0 0 500 500" style="enable-background:new 0 0 500 500;" xml:space="preserve">
<g id="Background_Complete">
	<g>
		<rect x="416.779" y="398.494" style="fill:#EBEBEB;" width="33.122" height="0.25"/>
		<rect x="322.527" y="401.208" style="fill:#EBEBEB;" width="8.693" height="0.25"/>
		<rect x="396.586" y="389.208" style="fill:#EBEBEB;" width="19.192" height="0.25"/>
		<rect x="52.459" y="390.888" style="fill:#EBEBEB;" width="43.193" height="0.25"/>
		<rect x="104.556" y="390.888" style="fill:#EBEBEB;" width="6.333" height="0.25"/>
		<rect x="131.471" y="395.111" style="fill:#EBEBEB;" width="93.676" height="0.25"/>
		<path style="fill:#EBEBEB;" d="M237.014,337.8H43.915c-3.147,0-5.708-2.561-5.708-5.708V60.66c0-3.147,2.561-5.708,5.708-5.708
			h193.099c3.146,0,5.707,2.561,5.707,5.708v271.432C242.721,335.239,240.16,337.8,237.014,337.8z M43.915,55.203
			c-3.01,0-5.458,2.448-5.458,5.458v271.432c0,3.01,2.448,5.458,5.458,5.458h193.099c3.009,0,5.457-2.448,5.457-5.458V60.66
			c0-3.009-2.448-5.458-5.457-5.458H43.915z"/>
		<path style="fill:#EBEBEB;" d="M453.31,337.8H260.212c-3.147,0-5.707-2.561-5.707-5.708V60.66c0-3.147,2.561-5.708,5.707-5.708
			H453.31c3.148,0,5.708,2.561,5.708,5.708v271.432C459.019,335.239,456.458,337.8,453.31,337.8z M260.212,55.203
			c-3.009,0-5.457,2.448-5.457,5.458v271.432c0,3.01,2.448,5.458,5.457,5.458H453.31c3.01,0,5.458-2.448,5.458-5.458V60.66
			c0-3.009-2.448-5.458-5.458-5.458H260.212z"/>
		<rect y="382.398" style="fill:#EBEBEB;" width="500" height="0.25"/>
	</g>
	<g>
		<path style="fill:#F0F0F0;" d="M150.802,214.923l-59.298,14.084c-1.024,0.243-2.051-0.39-2.294-1.413l-18.834-79.296
			c-0.243-1.024,0.39-2.051,1.413-2.294l36.527-8.676l30.522,18.979l13.377,56.321C152.459,213.653,151.826,214.68,150.802,214.923z
			"/>
		<polygon style="fill:#E6E6E6;" points="138.838,156.308 108.316,137.329 106.378,137.789 113.567,168.058 140.13,161.749 		"/>
		<polygon style="fill:none;" points="138.79,156.105 114.165,161.953 108.316,137.329 		"/>
		<polygon style="fill:#FAFAFA;" points="138.79,156.105 114.165,161.953 108.316,137.329 		"/>
		
			<rect x="89.651" y="170.368" transform="matrix(0.9729 -0.2311 0.2311 0.9729 -39.6348 30.9241)" style="fill:#E6E6E6;" width="45.077" height="28.57"/>
		<polygon style="fill:#FAFAFA;" points="103.592,191.291 96.312,203.107 115.407,198.571 		"/>
		<polygon style="fill:#FAFAFA;" points="111.114,199.591 137.419,193.343 136.818,190.809 122.109,181.746 		"/>
		<path style="fill:#FAFAFA;" d="M111.545,180.565c0.615,2.588-0.985,5.184-3.573,5.798c-2.588,0.615-5.184-0.985-5.799-3.573
			c-0.614-2.588,0.985-5.184,3.573-5.798C108.334,176.377,110.93,177.977,111.545,180.565z"/>
	</g>
	<g>
		<path style="fill:#EBEBEB;" d="M406.106,148.661L362.85,128.51c-0.747-0.348-1.07-1.235-0.722-1.982l26.947-57.845
			c0.348-0.747,1.235-1.07,1.982-0.722l26.646,12.413l9.526,26.48l-19.14,41.085C407.741,148.686,406.853,149.009,406.106,148.661z"
			/>
		<polygon style="fill:#E0E0E0;" points="427.228,106.854 417.703,80.374 416.289,79.715 406.002,101.796 425.379,110.823 		"/>
		<polygon style="fill:none;" points="427.298,106.705 409.335,98.337 417.703,80.374 		"/>
		<polygon style="fill:#F5F5F5;" points="427.298,106.705 409.335,98.337 417.703,80.374 		"/>
		<g>
			<g>
				<path style="fill:#FAFAFA;" d="M408.069,132.257c-10.664-4.968-21.328-9.936-31.992-14.904
					c-2.153-1.003-4.042,2.198-1.875,3.207c10.664,4.968,21.328,9.936,31.992,14.904
					C408.347,136.467,410.236,133.267,408.069,132.257L408.069,132.257z"/>
			</g>
			<g>
				<path style="fill:#FAFAFA;" d="M383.648,100.283c10.664,4.968,21.328,9.936,31.992,14.904c2.153,1.003,4.042-2.198,1.875-3.207
					c-10.664-4.968-21.328-9.936-31.992-14.904C383.369,96.073,381.48,99.274,383.648,100.283L383.648,100.283z"/>
			</g>
			<g>
				<path style="fill:#FAFAFA;" d="M378.695,110.693c10.664,4.968,21.328,9.936,31.993,14.904c2.153,1.003,4.042-2.198,1.875-3.207
					c-10.664-4.968-21.328-9.936-31.993-14.904C378.417,106.483,376.528,109.684,378.695,110.693L378.695,110.693z"/>
			</g>
		</g>
	</g>
	<g>
		<path style="fill:#E0E0E0;" d="M302.991,329.361l-0.986-3.268c-0.328-1.087-1.222-1.91-2.332-2.147l-24.121-5.144
			c-1.682-0.359-3.337,0.714-3.696,2.397l-9.832,46.106c-0.373,1.749,0.742,3.468,2.491,3.841l54.814,11.689
			c1.748,0.373,3.468-0.742,3.841-2.491l8.581-40.239c0.359-1.682-0.714-3.337-2.397-3.696l-24.344-5.191
			C304.049,331.014,303.275,330.302,302.991,329.361z"/>
		<path style="fill:#F0F0F0;" d="M329.354,336.41l-24.121-5.144c-1.111-0.237-2.262,0.149-3.005,1.008l-2.234,2.582
			c-0.643,0.743-1.639,1.077-2.6,0.872l-24.344-5.191c-1.683-0.359-3.337,0.714-3.696,2.397l-7.33,34.372
			c-0.373,1.748,0.742,3.468,2.491,3.841l54.814,11.689c1.749,0.373,3.468-0.742,3.841-2.491l8.581-40.239
			C332.109,338.423,331.036,336.769,329.354,336.41z"/>
	</g>
</g>
<g id="Background_Simple" style="display:none;">
	<g style="display:inline;">
		<path style="fill:#407BFF;" d="M405.245,134.032L405.245,134.032c-21.294-24.623-53.927-36.297-86.007-30.766l-164.245,28.315
			c-39.486,6.807-70.151,38.176-76.061,77.806l-7.191,48.222c-11.816,79.24,75.536,135.243,142.611,91.432l59.626-38.946
			c9.085-5.934,19.139-10.23,29.707-12.692l52.396-12.207C424.116,269.345,450.939,186.871,405.245,134.032z"/>
		<path style="opacity:0.9;fill:#FFFFFF;" d="M405.245,134.032L405.245,134.032c-21.294-24.623-53.927-36.297-86.007-30.766
			l-164.245,28.315c-39.486,6.807-70.151,38.176-76.061,77.806l-7.191,48.222c-11.816,79.24,75.536,135.243,142.611,91.432
			l59.626-38.946c9.085-5.934,19.139-10.23,29.707-12.692l52.396-12.207C424.116,269.345,450.939,186.871,405.245,134.032z"/>
	</g>
</g>
<g id="Shadow">
	<ellipse id="_x3C_Path_x3E__1_" style="fill:#F5F5F5;" cx="245.178" cy="412.391" rx="193.889" ry="11.323"/>
</g>
<g id="Window">
	<g>
		<g>
			<path style="fill:#407BFF;" d="M364.503,315.027H130.67c-6.569,0-11.894-5.325-11.894-11.894V125.354
				c0-6.569,5.325-11.894,11.894-11.894h233.832c6.569,0,11.894,5.325,11.894,11.894v177.779
				C376.397,309.702,371.072,315.027,364.503,315.027z"/>
			<path style="opacity:0.4;fill:#FFFFFF;" d="M364.503,315.027H130.67c-6.569,0-11.894-5.325-11.894-11.894V125.354
				c0-6.569,5.325-11.894,11.894-11.894h233.832c6.569,0,11.894,5.325,11.894,11.894v177.779
				C376.397,309.702,371.072,315.027,364.503,315.027z"/>
		</g>
		<path style="opacity:0.8;fill:#FFFFFF;" d="M130.67,127.105c-4.353,0-7.894,3.542-7.894,7.895v168.133
			c0,4.353,3.541,7.895,7.894,7.895h233.832c4.353,0,7.894-3.541,7.894-7.895V135c0-4.353-3.541-7.895-7.894-7.895H130.67z"/>
		<g>
			<path style="opacity:0.3;fill:#FFFFFF;" d="M137.155,123.251h-2.812c-1.042,0-1.886-0.845-1.886-1.886v-2.812
				c0-1.042,0.845-1.886,1.886-1.886h2.812c1.042,0,1.886,0.845,1.886,1.886v2.812C139.041,122.407,138.197,123.251,137.155,123.251
				z"/>
			<path style="opacity:0.5;fill:#FFFFFF;" d="M147.833,123.251h-2.812c-1.042,0-1.886-0.845-1.886-1.886v-2.812
				c0-1.042,0.845-1.886,1.886-1.886h2.812c1.042,0,1.886,0.845,1.886,1.886v2.812C149.719,122.407,148.874,123.251,147.833,123.251
				z"/>
			<path style="opacity:0.7;fill:#FFFFFF;" d="M158.51,123.251h-2.812c-1.042,0-1.886-0.845-1.886-1.886v-2.812
				c0-1.042,0.845-1.886,1.886-1.886h2.812c1.042,0,1.887,0.845,1.887,1.886v2.812C160.397,122.407,159.552,123.251,158.51,123.251z
				"/>
		</g>
		<g>
			<path style="fill:#FFFFFF;" d="M235.54,123.137l-0.009-4.176l-2.07,3.456h-0.522l-2.07-3.402v4.122h-1.116v-6.3h0.963
				l2.502,4.176l2.457-4.176h0.963l0.009,6.3H235.54z"/>
			<path style="fill:#FFFFFF;" d="M242.74,118.331l-2.25,5.193c-0.21,0.522-0.465,0.889-0.765,1.102
				c-0.3,0.213-0.663,0.32-1.089,0.32c-0.24,0-0.477-0.039-0.711-0.117c-0.234-0.078-0.426-0.186-0.576-0.324l0.45-0.828
				c0.108,0.102,0.235,0.183,0.383,0.243c0.147,0.06,0.295,0.09,0.445,0.09c0.198,0,0.361-0.051,0.491-0.153
				c0.129-0.103,0.247-0.273,0.355-0.513l0.081-0.189l-2.097-4.824h1.17l1.512,3.555l1.521-3.555H242.74z"/>
			<path style="fill:#FFFFFF;" d="M247.204,117.818v1.917h3.042v0.99h-3.042v2.412h-1.17v-6.3h4.599v0.981H247.204z"/>
			<path style="fill:#FFFFFF;" d="M251.623,117.346c-0.138-0.129-0.207-0.29-0.207-0.481c0-0.192,0.069-0.353,0.207-0.482
				c0.138-0.129,0.309-0.194,0.513-0.194c0.204,0,0.375,0.062,0.513,0.184c0.138,0.123,0.207,0.278,0.207,0.464
				c0,0.198-0.067,0.364-0.203,0.499c-0.135,0.135-0.307,0.202-0.517,0.202C251.932,117.539,251.761,117.475,251.623,117.346z
				 M251.568,118.331h1.125v4.806h-1.125V118.331z"/>
			<path style="fill:#FFFFFF;" d="M254.17,116.459h1.125v6.678h-1.125V116.459z"/>
			<path style="fill:#FFFFFF;" d="M261.271,121.094H257.5c0.066,0.354,0.239,0.634,0.518,0.841c0.279,0.207,0.625,0.311,1.04,0.311
				c0.528,0,0.963-0.174,1.305-0.522l0.603,0.693c-0.216,0.258-0.489,0.453-0.819,0.585c-0.33,0.132-0.702,0.198-1.116,0.198
				c-0.528,0-0.993-0.105-1.395-0.315c-0.402-0.21-0.712-0.503-0.932-0.878c-0.219-0.375-0.329-0.799-0.329-1.273
				c0-0.468,0.106-0.89,0.32-1.265c0.213-0.375,0.508-0.668,0.886-0.877c0.378-0.21,0.804-0.315,1.278-0.315
				c0.468,0,0.886,0.104,1.255,0.311c0.369,0.207,0.657,0.498,0.864,0.873s0.31,0.809,0.31,1.3
				C261.289,120.839,261.283,120.95,261.271,121.094z M257.945,119.497c-0.249,0.213-0.4,0.497-0.455,0.851h2.727
				c-0.048-0.348-0.195-0.63-0.441-0.846c-0.246-0.216-0.552-0.324-0.918-0.324C258.499,119.177,258.194,119.284,257.945,119.497z"
				/>
			<path style="fill:#FFFFFF;" d="M262.711,123.047c-0.372-0.102-0.669-0.231-0.891-0.387l0.432-0.855
				c0.216,0.144,0.476,0.26,0.778,0.347c0.303,0.087,0.602,0.13,0.896,0.13c0.672,0,1.008-0.177,1.008-0.531
				c0-0.167-0.086-0.285-0.257-0.351c-0.171-0.066-0.445-0.129-0.823-0.189c-0.396-0.06-0.719-0.129-0.968-0.207
				c-0.249-0.078-0.465-0.215-0.648-0.41c-0.183-0.195-0.274-0.466-0.274-0.814c0-0.456,0.191-0.82,0.571-1.094
				c0.381-0.273,0.895-0.409,1.544-0.409c0.33,0,0.66,0.038,0.99,0.112c0.33,0.075,0.6,0.176,0.81,0.302l-0.432,0.855
				c-0.408-0.24-0.867-0.36-1.377-0.36c-0.33,0-0.581,0.05-0.751,0.149c-0.171,0.099-0.256,0.229-0.256,0.392
				c0,0.18,0.091,0.308,0.274,0.383c0.183,0.075,0.466,0.146,0.851,0.211c0.384,0.06,0.699,0.129,0.945,0.207
				c0.246,0.078,0.458,0.21,0.635,0.396c0.177,0.186,0.265,0.45,0.265,0.792c0,0.45-0.195,0.81-0.585,1.08
				c-0.39,0.27-0.921,0.405-1.593,0.405C263.464,123.2,263.083,123.149,262.711,123.047z"/>
		</g>
	</g>
</g>
<g id="Files">
	<g>
		<g>
			<g>
				<path style="fill:#407BFF;" d="M169.822,168.256l-1.111-2.017c-0.369-0.671-1.075-1.088-1.841-1.088h-16.638
					c-1.16,0-2.101,0.941-2.101,2.101v31.802c0,1.206,0.978,2.184,2.184,2.184h37.809c1.206,0,2.184-0.978,2.184-2.184v-27.755
					c0-1.161-0.941-2.101-2.101-2.101h-16.792C170.752,169.198,170.142,168.837,169.822,168.256z"/>
				<path style="opacity:0.3;fill:#FFFFFF;" d="M169.822,168.256l-1.111-2.017c-0.369-0.671-1.075-1.088-1.841-1.088h-16.638
					c-1.16,0-2.101,0.941-2.101,2.101v31.802c0,1.206,0.978,2.184,2.184,2.184h37.809c1.206,0,2.184-0.978,2.184-2.184v-27.755
					c0-1.161-0.941-2.101-2.101-2.101h-16.792C170.752,169.198,170.142,168.837,169.822,168.256z"/>
			</g>
			<g>
				<rect x="152.803" y="170.469" style="fill:#263238;" width="32.248" height="24.114"/>
				<rect x="152.803" y="170.469" style="opacity:0.8;fill:#FFFFFF;" width="32.248" height="24.114"/>
			</g>
			<g>
				<rect x="150.473" y="172.89" style="fill:#263238;" width="36.909" height="27.599"/>
				<rect x="150.473" y="172.89" style="opacity:0.9;fill:#FFFFFF;" width="36.909" height="27.599"/>
			</g>
			<g>
				<g>
					<path style="fill:#407BFF;" d="M194.015,173.584c-8.848,0-13.274,0-22.122,0c-1.019,0-1.963,0.36-2.453,0.939
						c-0.59,0.696-0.88,1.045-1.451,1.741c-0.411,0.501-1.191,0.813-2.044,0.813c-8.643,0-12.965,0-21.609,0
						c-1.494,0-2.495,0.812-2.236,1.814c2.112,8.185,3.167,12.278,5.279,20.463c0.269,1.041,1.455,1.885,2.651,1.885
						c12.494,0,24.987,0,37.481,0c1.196,0,2.382-0.844,2.651-1.885c2.06-7.985,4.12-15.971,6.18-23.956
						C196.6,174.396,195.558,173.584,194.015,173.584z"/>
				</g>
				<g style="opacity:0.6;">
					<path style="fill:#FFFFFF;" d="M194.015,173.584c-8.848,0-13.274,0-22.122,0c-1.019,0-1.963,0.36-2.453,0.939
						c-0.59,0.696-0.88,1.045-1.451,1.741c-0.411,0.501-1.191,0.813-2.044,0.813c-8.643,0-12.965,0-21.609,0
						c-1.494,0-2.495,0.812-2.236,1.814c2.112,8.185,3.167,12.278,5.279,20.463c0.269,1.041,1.455,1.885,2.651,1.885
						c12.494,0,24.987,0,37.481,0c1.196,0,2.382-0.844,2.651-1.885c2.06-7.985,4.12-15.971,6.18-23.956
						C196.6,174.396,195.558,173.584,194.015,173.584z"/>
				</g>
			</g>
		</g>
		<g>
			<path style="fill:#263238;" d="M148.948,213.219c-1.393,0-2.521-1.129-2.521-2.521s1.129-2.521,2.521-2.521h40.329
				c1.393,0,2.521,1.129,2.521,2.521s-1.129,2.521-2.521,2.521H148.948z"/>
			<path style="opacity:0.6;fill:#FFFFFF;" d="M148.948,213.219c-1.393,0-2.521-1.129-2.521-2.521s1.129-2.521,2.521-2.521h40.329
				c1.393,0,2.521,1.129,2.521,2.521s-1.129,2.521-2.521,2.521H148.948z"/>
		</g>
	</g>
	<g>
		<g>
			<g>
				<path style="fill:#407BFF;" d="M245.037,168.256l-1.111-2.017c-0.369-0.671-1.075-1.088-1.841-1.088h-16.638
					c-1.161,0-2.101,0.941-2.101,2.101v31.802c0,1.206,0.978,2.184,2.184,2.184h37.809c1.206,0,2.184-0.978,2.184-2.184v-27.755
					c0-1.161-0.941-2.101-2.101-2.101H246.63C245.967,169.198,245.357,168.837,245.037,168.256z"/>
				<path style="opacity:0.3;fill:#FFFFFF;" d="M245.037,168.256l-1.111-2.017c-0.369-0.671-1.075-1.088-1.841-1.088h-16.638
					c-1.161,0-2.101,0.941-2.101,2.101v31.802c0,1.206,0.978,2.184,2.184,2.184h37.809c1.206,0,2.184-0.978,2.184-2.184v-27.755
					c0-1.161-0.941-2.101-2.101-2.101H246.63C245.967,169.198,245.357,168.837,245.037,168.256z"/>
			</g>
			<g>
				<rect x="228.018" y="170.469" style="fill:#263238;" width="32.248" height="24.114"/>
				<rect x="228.018" y="170.469" style="opacity:0.8;fill:#FFFFFF;" width="32.248" height="24.114"/>
			</g>
			<g>
				<rect x="225.688" y="172.89" style="fill:#263238;" width="36.909" height="27.599"/>
				<rect x="225.688" y="172.89" style="opacity:0.9;fill:#FFFFFF;" width="36.909" height="27.599"/>
			</g>
			<g>
				<g>
					<path style="fill:#407BFF;" d="M269.23,173.584c-8.849,0-13.274,0-22.122,0c-1.019,0-1.963,0.36-2.453,0.939
						c-0.59,0.696-0.88,1.045-1.451,1.741c-0.411,0.501-1.191,0.813-2.044,0.813c-8.643,0-12.965,0-21.609,0
						c-1.494,0-2.495,0.812-2.236,1.814c2.112,8.185,3.167,12.278,5.279,20.463c0.268,1.041,1.455,1.885,2.651,1.885
						c12.494,0,24.987,0,37.481,0c1.196,0,2.383-0.844,2.651-1.885c2.06-7.985,4.12-15.971,6.18-23.956
						C271.814,174.396,270.773,173.584,269.23,173.584z"/>
				</g>
				<g style="opacity:0.6;">
					<path style="fill:#FFFFFF;" d="M269.23,173.584c-8.849,0-13.274,0-22.122,0c-1.019,0-1.963,0.36-2.453,0.939
						c-0.59,0.696-0.88,1.045-1.451,1.741c-0.411,0.501-1.191,0.813-2.044,0.813c-8.643,0-12.965,0-21.609,0
						c-1.494,0-2.495,0.812-2.236,1.814c2.112,8.185,3.167,12.278,5.279,20.463c0.268,1.041,1.455,1.885,2.651,1.885
						c12.494,0,24.987,0,37.481,0c1.196,0,2.383-0.844,2.651-1.885c2.06-7.985,4.12-15.971,6.18-23.956
						C271.814,174.396,270.773,173.584,269.23,173.584z"/>
				</g>
			</g>
		</g>
		<g>
			<path style="fill:#263238;" d="M224.27,213.219c-1.393,0-2.521-1.129-2.521-2.521s1.129-2.521,2.521-2.521h40.329
				c1.392,0,2.521,1.129,2.521,2.521s-1.129,2.521-2.521,2.521H224.27z"/>
			<path style="opacity:0.6;fill:#FFFFFF;" d="M224.27,213.219c-1.393,0-2.521-1.129-2.521-2.521s1.129-2.521,2.521-2.521h40.329
				c1.392,0,2.521,1.129,2.521,2.521s-1.129,2.521-2.521,2.521H224.27z"/>
		</g>
	</g>
	<g>
		<g>
			<g>
				<path style="fill:#407BFF;" d="M169.822,248.543l-1.111-2.017c-0.369-0.671-1.075-1.088-1.841-1.088h-16.638
					c-1.16,0-2.101,0.941-2.101,2.101v31.802c0,1.206,0.978,2.184,2.184,2.184h37.809c1.206,0,2.184-0.978,2.184-2.184v-27.756
					c0-1.16-0.941-2.101-2.101-2.101h-16.792C170.752,249.484,170.142,249.124,169.822,248.543z"/>
				<path style="opacity:0.3;fill:#FFFFFF;" d="M169.822,248.543l-1.111-2.017c-0.369-0.671-1.075-1.088-1.841-1.088h-16.638
					c-1.16,0-2.101,0.941-2.101,2.101v31.802c0,1.206,0.978,2.184,2.184,2.184h37.809c1.206,0,2.184-0.978,2.184-2.184v-27.756
					c0-1.16-0.941-2.101-2.101-2.101h-16.792C170.752,249.484,170.142,249.124,169.822,248.543z"/>
			</g>
			<g>
				<rect x="152.803" y="250.756" style="fill:#263238;" width="32.248" height="24.114"/>
				<rect x="152.803" y="250.756" style="opacity:0.8;fill:#FFFFFF;" width="32.248" height="24.114"/>
			</g>
			<g>
				<rect x="150.473" y="253.177" style="fill:#263238;" width="36.909" height="27.599"/>
				<rect x="150.473" y="253.177" style="opacity:0.9;fill:#FFFFFF;" width="36.909" height="27.599"/>
			</g>
			<g>
				<g>
					<path style="fill:#407BFF;" d="M194.015,253.87c-8.848,0-13.274,0-22.122,0c-1.019,0-1.963,0.36-2.453,0.939
						c-0.59,0.697-0.88,1.045-1.451,1.741c-0.411,0.501-1.191,0.813-2.044,0.813c-8.643,0-12.965,0-21.609,0
						c-1.494,0-2.495,0.812-2.236,1.814c2.112,8.185,3.167,12.278,5.279,20.463c0.269,1.041,1.455,1.885,2.651,1.885
						c12.494,0,24.987,0,37.481,0c1.196,0,2.382-0.844,2.651-1.885c2.06-7.985,4.12-15.971,6.18-23.956
						C196.6,254.682,195.558,253.871,194.015,253.87z"/>
				</g>
				<g style="opacity:0.6;">
					<path style="fill:#FFFFFF;" d="M194.015,253.87c-8.848,0-13.274,0-22.122,0c-1.019,0-1.963,0.36-2.453,0.939
						c-0.59,0.697-0.88,1.045-1.451,1.741c-0.411,0.501-1.191,0.813-2.044,0.813c-8.643,0-12.965,0-21.609,0
						c-1.494,0-2.495,0.812-2.236,1.814c2.112,8.185,3.167,12.278,5.279,20.463c0.269,1.041,1.455,1.885,2.651,1.885
						c12.494,0,24.987,0,37.481,0c1.196,0,2.382-0.844,2.651-1.885c2.06-7.985,4.12-15.971,6.18-23.956
						C196.6,254.682,195.558,253.871,194.015,253.87z"/>
				</g>
			</g>
		</g>
		<g>
			<path style="fill:#263238;" d="M148.948,294.511c-1.393,0-2.521-1.129-2.521-2.521c0-1.392,1.129-2.521,2.521-2.521h40.329
				c1.393,0,2.521,1.129,2.521,2.521c0,1.393-1.129,2.521-2.521,2.521H148.948z"/>
			<path style="opacity:0.6;fill:#FFFFFF;" d="M148.948,294.511c-1.393,0-2.521-1.129-2.521-2.521c0-1.392,1.129-2.521,2.521-2.521
				h40.329c1.393,0,2.521,1.129,2.521,2.521c0,1.393-1.129,2.521-2.521,2.521H148.948z"/>
		</g>
	</g>
	<g>
		<g>
			<g>
				<path style="fill:#407BFF;" d="M245.037,248.543l-1.111-2.017c-0.369-0.671-1.075-1.088-1.841-1.088h-16.638
					c-1.161,0-2.101,0.941-2.101,2.101v31.802c0,1.206,0.978,2.184,2.184,2.184h37.809c1.206,0,2.184-0.978,2.184-2.184v-27.756
					c0-1.16-0.941-2.101-2.101-2.101H246.63C245.967,249.484,245.357,249.124,245.037,248.543z"/>
				<path style="opacity:0.3;fill:#FFFFFF;" d="M245.037,248.543l-1.111-2.017c-0.369-0.671-1.075-1.088-1.841-1.088h-16.638
					c-1.161,0-2.101,0.941-2.101,2.101v31.802c0,1.206,0.978,2.184,2.184,2.184h37.809c1.206,0,2.184-0.978,2.184-2.184v-27.756
					c0-1.16-0.941-2.101-2.101-2.101H246.63C245.967,249.484,245.357,249.124,245.037,248.543z"/>
			</g>
			<g>
				<rect x="228.018" y="250.756" style="fill:#263238;" width="32.248" height="24.114"/>
				<rect x="228.018" y="250.756" style="opacity:0.8;fill:#FFFFFF;" width="32.248" height="24.114"/>
			</g>
			<g>
				<rect x="225.688" y="253.177" style="fill:#263238;" width="36.909" height="27.599"/>
				<rect x="225.688" y="253.177" style="opacity:0.9;fill:#FFFFFF;" width="36.909" height="27.599"/>
			</g>
			<g>
				<g>
					<path style="fill:#407BFF;" d="M269.23,253.87c-8.849,0-13.274,0-22.122,0c-1.019,0-1.963,0.36-2.453,0.939
						c-0.59,0.697-0.88,1.045-1.451,1.741c-0.411,0.501-1.191,0.813-2.044,0.813c-8.643,0-12.965,0-21.609,0
						c-1.494,0-2.495,0.812-2.236,1.814c2.112,8.185,3.167,12.278,5.279,20.463c0.268,1.041,1.455,1.885,2.651,1.885
						c12.494,0,24.987,0,37.481,0c1.196,0,2.383-0.844,2.651-1.885c2.06-7.985,4.12-15.971,6.18-23.956
						C271.814,254.682,270.773,253.871,269.23,253.87z"/>
				</g>
				<g style="opacity:0.6;">
					<path style="fill:#FFFFFF;" d="M269.23,253.87c-8.849,0-13.274,0-22.122,0c-1.019,0-1.963,0.36-2.453,0.939
						c-0.59,0.697-0.88,1.045-1.451,1.741c-0.411,0.501-1.191,0.813-2.044,0.813c-8.643,0-12.965,0-21.609,0
						c-1.494,0-2.495,0.812-2.236,1.814c2.112,8.185,3.167,12.278,5.279,20.463c0.268,1.041,1.455,1.885,2.651,1.885
						c12.494,0,24.987,0,37.481,0c1.196,0,2.383-0.844,2.651-1.885c2.06-7.985,4.12-15.971,6.18-23.956
						C271.814,254.682,270.773,253.871,269.23,253.87z"/>
				</g>
			</g>
		</g>
		<g>
			<path style="fill:#263238;" d="M224.27,294.511c-1.393,0-2.521-1.129-2.521-2.521c0-1.392,1.129-2.521,2.521-2.521h40.329
				c1.392,0,2.521,1.129,2.521,2.521c0,1.393-1.129,2.521-2.521,2.521H224.27z"/>
			<path style="opacity:0.6;fill:#FFFFFF;" d="M224.27,294.511c-1.393,0-2.521-1.129-2.521-2.521c0-1.392,1.129-2.521,2.521-2.521
				h40.329c1.392,0,2.521,1.129,2.521,2.521c0,1.393-1.129,2.521-2.521,2.521H224.27z"/>
		</g>
	</g>
	<g>
		<g>
			<g>
				<path style="fill:#407BFF;" d="M318.556,248.543l-1.111-2.017c-0.369-0.671-1.075-1.088-1.841-1.088h-16.638
					c-1.161,0-2.101,0.941-2.101,2.101v31.802c0,1.206,0.978,2.184,2.184,2.184h37.809c1.206,0,2.184-0.978,2.184-2.184v-27.756
					c0-1.16-0.941-2.101-2.101-2.101h-16.792C319.486,249.484,318.875,249.124,318.556,248.543z"/>
				<path style="opacity:0.3;fill:#FFFFFF;" d="M318.556,248.543l-1.111-2.017c-0.369-0.671-1.075-1.088-1.841-1.088h-16.638
					c-1.161,0-2.101,0.941-2.101,2.101v31.802c0,1.206,0.978,2.184,2.184,2.184h37.809c1.206,0,2.184-0.978,2.184-2.184v-27.756
					c0-1.16-0.941-2.101-2.101-2.101h-16.792C319.486,249.484,318.875,249.124,318.556,248.543z"/>
			</g>
			<g>
				<rect x="301.537" y="250.756" style="fill:#263238;" width="32.248" height="24.114"/>
				<rect x="301.537" y="250.756" style="opacity:0.8;fill:#FFFFFF;" width="32.248" height="24.114"/>
			</g>
			<g>
				<rect x="299.206" y="253.177" style="fill:#263238;" width="36.909" height="27.599"/>
				<rect x="299.206" y="253.177" style="opacity:0.9;fill:#FFFFFF;" width="36.909" height="27.599"/>
			</g>
			<g>
				<g>
					<path style="fill:#407BFF;" d="M342.749,253.87c-8.848,0-13.274,0-22.122,0c-1.019,0-1.963,0.36-2.453,0.939
						c-0.59,0.697-0.88,1.045-1.451,1.741c-0.411,0.501-1.191,0.813-2.044,0.813c-8.643,0-12.965,0-21.609,0
						c-1.493,0-2.495,0.812-2.236,1.814c2.112,8.185,3.167,12.278,5.279,20.463c0.268,1.041,1.455,1.885,2.651,1.885
						c12.494,0,24.987,0,37.481,0c1.196,0,2.383-0.844,2.651-1.885c2.06-7.985,4.12-15.971,6.18-23.956
						C345.333,254.682,344.292,253.871,342.749,253.87z"/>
				</g>
				<g style="opacity:0.6;">
					<path style="fill:#FFFFFF;" d="M342.749,253.87c-8.848,0-13.274,0-22.122,0c-1.019,0-1.963,0.36-2.453,0.939
						c-0.59,0.697-0.88,1.045-1.451,1.741c-0.411,0.501-1.191,0.813-2.044,0.813c-8.643,0-12.965,0-21.609,0
						c-1.493,0-2.495,0.812-2.236,1.814c2.112,8.185,3.167,12.278,5.279,20.463c0.268,1.041,1.455,1.885,2.651,1.885
						c12.494,0,24.987,0,37.481,0c1.196,0,2.383-0.844,2.651-1.885c2.06-7.985,4.12-15.971,6.18-23.956
						C345.333,254.682,344.292,253.871,342.749,253.87z"/>
				</g>
			</g>
		</g>
		<g>
			<path style="fill:#263238;" d="M297.789,294.511c-1.393,0-2.521-1.129-2.521-2.521c0-1.392,1.129-2.521,2.521-2.521h40.329
				c1.393,0,2.521,1.129,2.521,2.521c0,1.393-1.129,2.521-2.521,2.521H297.789z"/>
			<path style="opacity:0.6;fill:#FFFFFF;" d="M297.789,294.511c-1.393,0-2.521-1.129-2.521-2.521c0-1.392,1.129-2.521,2.521-2.521
				h40.329c1.393,0,2.521,1.129,2.521,2.521c0,1.393-1.129,2.521-2.521,2.521H297.789z"/>
		</g>
	</g>
	<g>
		<g>
			<path style="fill:#263238;" d="M297.269,213.219c-1.393,0-2.521-1.129-2.521-2.521s1.129-2.521,2.521-2.521h40.329
				c1.393,0,2.521,1.129,2.521,2.521s-1.129,2.521-2.521,2.521H297.269z"/>
			<path style="opacity:0.6;fill:#FFFFFF;" d="M297.269,213.219c-1.393,0-2.521-1.129-2.521-2.521s1.129-2.521,2.521-2.521h40.329
				c1.393,0,2.521,1.129,2.521,2.521s-1.129,2.521-2.521,2.521H297.269z"/>
		</g>
		<g>
			<g>
				<path style="fill:#407BFF;" d="M295.894,202.126l8.599,25.162c0.36,1.052,1.608,1.905,2.788,1.905h16.92
					c0.779,0,1.367-0.378,1.535-0.986l0.504-1.829c0.145-0.527,0.654-0.853,1.328-0.853h17.076c1.18,0,1.845-0.853,1.486-1.905
					l-7.345-21.493l-0.101-4.2v-32.341c0-1.18-0.957-2.137-2.137-2.137h-16.92c-0.779,0-1.496,0.424-1.872,1.106l-1.129,2.052
					c-0.325,0.59-0.946,0.957-1.62,0.957H297.93c-1.18,0-2.137,0.957-2.137,2.137v28.226L295.894,202.126z"/>
				<path style="opacity:0.6;fill:#FFFFFF;" d="M295.894,202.126l8.599,25.162c0.36,1.052,1.608,1.905,2.788,1.905h16.92
					c0.779,0,1.367-0.378,1.535-0.986l0.504-1.829c0.145-0.527,0.654-0.853,1.328-0.853h17.076c1.18,0,1.845-0.853,1.486-1.905
					l-7.345-21.493l-0.101-4.2v-32.341c0-1.18-0.957-2.137-2.137-2.137h-16.92c-0.779,0-1.496,0.424-1.872,1.106l-1.129,2.052
					c-0.325,0.59-0.946,0.957-1.62,0.957H297.93c-1.18,0-2.137,0.957-2.137,2.137v28.226L295.894,202.126z"/>
				<path style="fill:#407BFF;" d="M295.894,202.126l8.599,25.162c0.36,1.052,1.608,1.905,2.788,1.905h16.92
					c0.779,0,1.367-0.378,1.535-0.986l0.504-1.829c0.145-0.527,0.654-0.853,1.328-0.853h17.076c1.18,0,1.845-0.853,1.486-1.905
					l-7.345-21.493H295.894z"/>
				<path style="opacity:0.3;fill:#FFFFFF;" d="M295.894,202.126l8.599,25.162c0.36,1.052,1.608,1.905,2.788,1.905h16.92
					c0.779,0,1.367-0.378,1.535-0.986l0.504-1.829c0.145-0.527,0.654-0.853,1.328-0.853h17.076c1.18,0,1.845-0.853,1.486-1.905
					l-7.345-21.493H295.894z"/>
			</g>
			<polygon style="opacity:0.1;" points="300.027,202.126 334.841,202.126 341.192,220.019 306.378,220.019 			"/>
			<g>
				
					<rect x="300.027" y="173.914" transform="matrix(-1 -1.224647e-16 1.224647e-16 -1 634.8677 376.0406)" style="fill:#263238;" width="34.814" height="28.212"/>
				
					<rect x="300.027" y="173.914" transform="matrix(-1 -1.224647e-16 1.224647e-16 -1 634.8677 376.0406)" style="opacity:0.8;fill:#FFFFFF;" width="34.814" height="28.212"/>
			</g>
			<g>
				<polygon style="fill:#263238;" points="300.027,202.126 334.841,202.126 341.898,181.797 307.084,181.797 				"/>
				<polygon style="opacity:0.9;fill:#FFFFFF;" points="300.027,202.126 334.841,202.126 341.898,181.797 307.084,181.797 				"/>
			</g>
			<g>
				<polygon style="fill:#263238;" points="300.027,202.126 334.841,202.126 341.898,217.196 307.084,217.196 				"/>
				<polygon style="opacity:0.9;fill:#FFFFFF;" points="300.027,202.126 334.841,202.126 341.898,217.196 307.084,217.196 				"/>
			</g>
			<g>
				<polygon style="fill:#263238;" points="300.027,202.126 334.841,202.126 346.228,194.379 311.414,194.379 				"/>
				<polygon style="opacity:0.8;fill:#FFFFFF;" points="300.027,202.126 334.841,202.126 346.228,194.379 311.414,194.379 				"/>
			</g>
		</g>
	</g>
</g>
<g id="Plant">
	<g>
		<g>
			<path style="fill:#407BFF;" d="M108.305,378.253c0.853-13.569,6.801-27.308,16.379-36.622c2.388-2.323,7.407-6.926,3.336-9.354
				c-4.646-2.772-13.575,10.202-14.817,12.6c2.633-10.339,10.638-17.824,19.319-22.119c4.291-2.123,8.377-4.124,3.805-7.279
				c-4.679-3.229-14.462,4.495-16.743,7.769c5.421-7.564,12.271-15.153,19.288-19.678c7.749-4.996,4.251-13.341-3.74-6.895
				c-4.955,3.997-13.09,13.977-13.09,13.977c-0.024-0.014,12.791-25.689,8.928-28.049c-4.963-3.033-13.757,32.011-16.177,38.899
				c0.644-5.721,1.253-19.56-3.046-20.16c-3.89-0.544-2.938,33.916-3.843,39.997c-0.569,2.657-0.825,3.993-1.275,6.676
				c-0.423-4.59-2.982-16.691-6.864-15.293c-3.277,1.181-1.249,10.242-0.397,14.538c2.062,10.409,4.142,20.482,4.157,31.158
				C105.437,378.351,106.393,378.319,108.305,378.253z"/>
			<path style="opacity:0.4;fill:#FFFFFF;" d="M112.452,308.086c0.574,7.489,1.095,15.081,0.376,22.599
				c1.545-4.375,3.329-8.651,5.336-12.805c0.016-0.065,0.044-0.132,0.092-0.198c0.004-0.006,0.008-0.011,0.012-0.017
				c0.606-1.247,1.223-2.488,1.869-3.712c0.261-0.494,0.904-0.269,0.812,0.183c4.744-6.021,10.468-11.495,17.287-15.019
				c0.505-0.261,0.844,0.501,0.366,0.772c-7.921,4.483-13.807,10.796-19.645,18.261c-2.434,4.935-4.563,10.206-6.241,15.447
				c4.19-6.84,11.017-11.722,18.641-14.037c0.52-0.157,0.815,0.643,0.297,0.806c-10.557,3.331-17.963,10.715-21.009,20.384
				c-0.025,0.081-0.059,0.156-0.104,0.212c-1.467,6.18-2.586,12.18-3.447,18.473c2.979-8.865,9.391-16.699,16.746-22.194
				c0.446-0.333,0.845,0.431,0.405,0.762c-8.833,6.648-14.53,15.431-17.522,25.529c-0.005,0.017-0.014,0.027-0.02,0.043
				c-0.319,3.976-0.465,7.978-0.423,11.988c0.007,0.636-0.834,0.646-0.833,0.013c0.027-13.454,2.001-26.456,5.628-39.577
				c1.94-9.087,1.24-18.582,0.509-27.734C111.533,307.641,112.405,307.466,112.452,308.086z"/>
		</g>
		<path style="fill:#407BFF;" d="M107.299,378.237c-1.012-16.093-8.066-32.387-19.426-43.433c-2.833-2.754-8.785-8.214-3.957-11.094
			c5.511-3.288,16.1,12.099,17.573,14.944c-3.123-12.263-12.616-21.14-22.912-26.233c-5.089-2.518-9.935-4.891-4.513-8.633
			c5.549-3.829,17.152,5.331,19.858,9.214c-6.429-8.97-14.553-17.971-22.876-23.338c-9.19-5.926-5.042-15.822,4.435-8.178
			c5.877,4.741,15.525,16.576,15.525,16.576c0.028-0.017-15.17-30.467-10.588-33.267c5.887-3.597,16.316,37.965,19.186,46.134
			c-0.763-6.785-1.486-23.198,3.613-23.91c4.613-0.645,3.484,40.224,4.557,47.436c0.675,3.152,0.978,4.736,1.512,7.918
			c0.501-5.444,3.537-19.795,8.14-18.137c3.887,1.4,1.481,12.146,0.471,17.242c-2.446,12.345-4.913,24.292-4.93,36.953
			C110.699,378.354,109.566,378.315,107.299,378.237z"/>
		<path style="opacity:0.2;fill:#FFFFFF;" d="M102.38,295.019c-0.68,8.882-1.298,17.886-0.446,26.803
			c-1.833-5.189-3.948-10.261-6.328-15.186c-0.018-0.077-0.052-0.156-0.109-0.234c-0.005-0.007-0.01-0.014-0.015-0.02
			c-0.718-1.479-1.45-2.951-2.216-4.403c-0.309-0.586-1.072-0.319-0.963,0.217c-5.627-7.141-12.415-13.634-20.502-17.813
			c-0.599-0.309-1.001,0.594-0.434,0.915c9.395,5.317,16.375,12.804,23.299,21.658c2.887,5.853,5.411,12.105,7.402,18.32
			c-4.969-8.112-13.066-13.902-22.108-16.648c-0.617-0.187-0.966,0.762-0.352,0.956c12.52,3.95,21.304,12.708,24.917,24.176
			c0.03,0.096,0.07,0.185,0.123,0.251c1.739,7.33,3.067,14.446,4.089,21.909c-3.533-10.514-11.137-19.805-19.861-26.323
			c-0.529-0.395-1.003,0.511-0.48,0.904c10.476,7.884,17.233,18.301,20.781,30.278c0.006,0.02,0.017,0.032,0.023,0.051
			c0.378,4.716,0.551,9.461,0.501,14.218c-0.008,0.754,0.989,0.767,0.988,0.016c-0.032-15.956-2.373-31.376-6.674-46.939
			c-2.301-10.777-1.47-22.038-0.604-32.892C103.47,294.491,102.436,294.284,102.38,295.019z"/>
		<path style="fill:#407BFF;" d="M107.299,378.237c-1.012-16.093-8.066-32.387-19.426-43.433c-2.833-2.754-8.785-8.214-3.957-11.094
			c5.511-3.288,16.1,12.099,17.573,14.944c-3.123-12.263-12.616-21.14-22.912-26.233c-5.089-2.518-9.935-4.891-4.513-8.633
			c5.549-3.829,17.152,5.331,19.858,9.214c-6.429-8.97-14.553-17.971-22.876-23.338c-9.19-5.926-5.042-15.822,4.435-8.178
			c5.877,4.741,15.525,16.576,15.525,16.576c0.028-0.017-15.17-30.467-10.588-33.267c5.887-3.597,16.316,37.965,19.186,46.134
			c-0.763-6.785-1.486-23.198,3.613-23.91c4.613-0.645,3.484,40.224,4.557,47.436c0.675,3.152,0.978,4.736,1.512,7.918
			c0.501-5.444,3.537-19.795,8.14-18.137c3.887,1.4,1.481,12.146,0.471,17.242c-2.446,12.345-4.913,24.292-4.93,36.953
			C110.699,378.354,109.566,378.315,107.299,378.237z"/>
		<path style="opacity:0.2;fill:#FFFFFF;" d="M107.299,378.237c-1.012-16.093-8.066-32.387-19.426-43.433
			c-2.833-2.754-8.785-8.214-3.957-11.094c5.511-3.288,16.1,12.099,17.573,14.944c-3.123-12.263-12.616-21.14-22.912-26.233
			c-5.089-2.518-9.935-4.891-4.513-8.633c5.549-3.829,17.152,5.331,19.858,9.214c-6.429-8.97-14.553-17.971-22.876-23.338
			c-9.19-5.926-5.042-15.822,4.435-8.178c5.877,4.741,15.525,16.576,15.525,16.576c0.028-0.017-15.17-30.467-10.588-33.267
			c5.887-3.597,16.316,37.965,19.186,46.134c-0.763-6.785-1.486-23.198,3.613-23.91c4.613-0.645,3.484,40.224,4.557,47.436
			c0.675,3.152,0.978,4.736,1.512,7.918c0.501-5.444,3.537-19.795,8.14-18.137c3.887,1.4,1.481,12.146,0.471,17.242
			c-2.446,12.345-4.913,24.292-4.93,36.953C110.699,378.354,109.566,378.315,107.299,378.237z"/>
		<path style="opacity:0.5;fill:#FFFFFF;" d="M102.38,295.019c-0.68,8.882-1.298,17.886-0.446,26.803
			c-1.833-5.189-3.948-10.261-6.328-15.186c-0.018-0.077-0.052-0.156-0.109-0.234c-0.005-0.007-0.01-0.014-0.015-0.02
			c-0.718-1.479-1.45-2.951-2.216-4.403c-0.309-0.586-1.072-0.319-0.963,0.217c-5.627-7.141-12.415-13.634-20.502-17.813
			c-0.599-0.309-1.001,0.594-0.434,0.915c9.395,5.317,16.375,12.804,23.299,21.658c2.887,5.853,5.411,12.105,7.402,18.32
			c-4.969-8.112-13.066-13.902-22.108-16.648c-0.617-0.187-0.966,0.762-0.352,0.956c12.52,3.95,21.304,12.708,24.917,24.176
			c0.03,0.096,0.07,0.185,0.123,0.251c1.739,7.33,3.067,14.446,4.089,21.909c-3.533-10.514-11.137-19.805-19.861-26.323
			c-0.529-0.395-1.003,0.511-0.48,0.904c10.476,7.884,17.233,18.301,20.781,30.278c0.006,0.02,0.017,0.032,0.023,0.051
			c0.378,4.716,0.551,9.461,0.501,14.218c-0.008,0.754,0.989,0.767,0.988,0.016c-0.032-15.956-2.373-31.376-6.674-46.939
			c-2.301-10.777-1.47-22.038-0.604-32.892C103.47,294.491,102.436,294.284,102.38,295.019z"/>
		<path style="fill:#407BFF;" d="M123.83,376.046H92.551c-2.03,0-3.676,1.646-3.676,3.676v1.615c0,2.03,1.646,3.676,3.676,3.676h0
			l3.602,26.011h24.076l3.602-26.011l0,0c2.03,0,3.676-1.646,3.676-3.676v-1.615C127.506,377.692,125.86,376.046,123.83,376.046z"/>
		<path style="opacity:0.2;" d="M123.83,376.046H92.551c-2.03,0-3.676,1.646-3.676,3.676v1.615c0,2.03,1.646,3.676,3.676,3.676h0
			l3.602,26.011h24.076l3.602-26.011l0,0c2.03,0,3.676-1.646,3.676-3.676v-1.615C127.506,377.692,125.86,376.046,123.83,376.046z"/>
		<polygon style="opacity:0.2;" points="123.088,390.372 123.819,385.094 92.562,385.094 93.293,390.372 		"/>
	</g>
</g>
<g id="Character">
	<g>
		<g>
			<path style="fill:#B97964;" d="M388.799,196.099c0,0,17.908,15.402,17.908,24.528c0,8.389-17.791,17.381-25.609,18.545
				c-1.812,0.27-7.33,0-7.33,0c-1.693,0-3.203-1.068-3.766-2.665l-0.091-0.258c-0.51-1.445-0.171-3.077,0.931-4.143
				c0.826-0.799,1.915-1.57,3.164-1.766c2.824-0.441,6.798,3.532,6.798,3.532s17.367-10.45,17.367-12.363
				c0-1.913-7.936-8.17-10.302-11.627C385.884,206.985,383.843,202.773,388.799,196.099z"/>
			<path style="fill:#407BFF;" d="M389.247,195.243c1.739,1.04,5.657,4.045,11.973,12.393c0,0-0.232,4.559-8.346,8.809
				c0,0-8.655-6.646-8.578-13.06c0.053-4.378,1.849-6.816,2.984-7.923C387.809,194.948,388.614,194.864,389.247,195.243z"/>
			<path style="opacity:0.2;" d="M387.423,210.938c2.452,3.203,5.451,5.508,5.451,5.508c0.22-0.115,0.432-0.231,0.64-0.347
				c0.822-9.799-2.263-16.036-2.263-16.036l-3.059,4.173L387.423,210.938z"/>
			<path style="opacity:0.2;fill:#606060;" d="M381.434,239.113c3.143-0.536,7.728-2.232,12.138-4.602
				c-1.641-1.199-2.127-5.368-2.267-7.313c-4.452,3.004-9.559,6.104-10.378,6.6L381.434,239.113z"/>
			<g>
				<path style="fill:#407BFF;" d="M391.715,216.175c0,0,7.225-3.902,9.505-9.775l1.352,2.28c0,0-2.344,5.725-9.453,8.932
					L391.715,216.175z"/>
				<path style="opacity:0.5;fill:#FFFFFF;" d="M391.715,216.175c0,0,7.225-3.902,9.505-9.775l1.352,2.28
					c0,0-2.344,5.725-9.453,8.932L391.715,216.175z"/>
			</g>
		</g>
		<g>
			<path style="fill:#407BFF;" d="M383.132,209.495l-1.007-1.296c-0.335-0.431-0.878-0.646-1.417-0.561l-11.712,1.855
				c-0.817,0.129-1.374,0.896-1.245,1.713l3.546,22.387c0.134,0.849,0.932,1.428,1.781,1.294l26.615-4.215
				c0.849-0.135,1.428-0.932,1.294-1.781l-3.094-19.538c-0.129-0.817-0.897-1.374-1.714-1.245l-11.82,1.872
				C383.891,210.054,383.422,209.868,383.132,209.495z"/>
			<path style="opacity:0.4;fill:#FFFFFF;" d="M383.132,209.495l-1.007-1.296c-0.335-0.431-0.878-0.646-1.417-0.561l-11.712,1.855
				c-0.817,0.129-1.374,0.896-1.245,1.713l3.546,22.387c0.134,0.849,0.932,1.428,1.781,1.294l26.615-4.215
				c0.849-0.135,1.428-0.932,1.294-1.781l-3.094-19.538c-0.129-0.817-0.897-1.374-1.714-1.245l-11.82,1.872
				C383.891,210.054,383.422,209.868,383.132,209.495z"/>
			<path style="fill:#407BFF;" d="M396.178,208.108l-11.712,1.855c-0.539,0.085-0.989,0.458-1.174,0.971l-0.557,1.544
				c-0.16,0.444-0.55,0.766-1.016,0.84l-11.82,1.872c-0.817,0.129-1.374,0.896-1.245,1.713l2.643,16.689
				c0.134,0.849,0.932,1.428,1.781,1.294l26.615-4.215c0.849-0.135,1.428-0.932,1.294-1.781l-3.094-19.538
				C397.762,208.536,396.995,207.978,396.178,208.108z"/>
			<path style="opacity:0.7;fill:#FFFFFF;" d="M396.178,208.108l-11.712,1.855c-0.539,0.085-0.989,0.458-1.174,0.971l-0.557,1.544
				c-0.16,0.444-0.55,0.766-1.016,0.84l-11.82,1.872c-0.817,0.129-1.374,0.896-1.245,1.713l2.643,16.689
				c0.134,0.849,0.932,1.428,1.781,1.294l26.615-4.215c0.849-0.135,1.428-0.932,1.294-1.781l-3.094-19.538
				C397.762,208.536,396.995,207.978,396.178,208.108z"/>
		</g>
		<polygon style="fill:#B97964;" points="410.596,391.371 414.21,403.967 420.101,402.808 418.555,389.362 		"/>
		<path style="fill:#263238;" d="M413.698,402.035l6.953-1.262c0.262-0.048,0.522,0.093,0.626,0.338l2.283,5.429
			c0.206,0.48-0.016,1.036-0.496,1.242c-0.062,0.026-0.126,0.046-0.192,0.059c-2.514,0.411-4.768,0.678-7.888,1.249
			c-3.682,0.669-2.668,0.94-6.986,1.788c-2.602,0.508-3.618-2.371-2.538-2.717c4.947-1.556,5.195-3.18,6.819-5.346
			C412.64,402.39,413.145,402.112,413.698,402.035z"/>
		<polygon style="fill:#B97964;" points="359.259,388.924 359.259,405.616 365.519,405.616 368.745,389.31 		"/>
		<path style="fill:#263238;" d="M359.149,404.552l7.054,0.252c0.266,0.009,0.49,0.202,0.539,0.464l1.07,5.784
			c0.099,0.512-0.237,1.008-0.749,1.106c-0.066,0.013-0.133,0.018-0.199,0.017c-2.541-0.135-4.797-0.355-7.963-0.464
			c-3.736-0.133-2.804,0.348-7.198,0.254c-2.648-0.06-3.024-3.085-1.897-3.193c5.159-0.463,5.747-1.994,7.794-3.762
			C358.041,404.672,358.593,404.509,359.149,404.552z"/>
		<path style="fill:#263238;" d="M378.269,249.468l11.688-3.297c0,0,8.289,5.314,9.516,29.468
			c0.493,9.712,3.265,17.208,2.878,35.615c-0.113,5.37,1.056,10.706,3.459,15.51c2.139,4.275,4.712,10.501,6.46,18.32
			c3.503,15.661,7.831,51.517,7.831,51.517l-8.449,1.443c0,0-7.831-26.583-18.134-53.165
			c-10.303-26.583-17.516-67.178-17.516-67.178l-2.708-28.231H378.269z"/>
		<path style="opacity:0.6;" d="M383.112,278.935l-2.37,0.515l-2.679,2.679l-0.691,2.737c1.071,5.379,2.736,13.315,4.871,22.176
			C386.323,284.491,383.112,278.935,383.112,278.935z"/>
		<path style="fill:#263238;" d="M356.632,248.438l2.164,151.769h8.346c0,0,8.655-37.401,8.655-52.238
			c0-8.783-0.578-18.071-1.049-24.188c-0.35-4.542,0.225-9.1,1.675-13.418c2.744-8.169,7.06-22.241,7.617-31.426
			c0,0,10.921-0.412,3.091-30.498H356.632z"/>
		<path style="fill:#A24E3F;" d="M363.086,171.65l-3.85,3.734c0,0,1.203,1.425,3.421,1.179L363.086,171.65z"/>
		<path style="fill:#B97964;" d="M384.13,172.413c-1.549,7.609-2.041,10.869-6.471,14.264c-6.487,3.179-15.685,1.543-16.438-6.382
			c-0.681-7.13,1.961-18.348,9.917-20.39c5.672-1.453,11.447,1.967,12.9,7.639C384.446,169.138,384.477,170.805,384.13,172.413z"/>
		<path style="fill:#263238;" d="M364.643,166.797c-0.102-0.013-0.191-0.075-0.24-0.166c-0.328-0.7-0.973-1.199-1.733-1.342
			c-0.166-0.018-0.287-0.167-0.271-0.333c0.021-0.167,0.171-0.287,0.339-0.271c0.966,0.159,1.793,0.782,2.212,1.668
			c0.077,0.151,0.017,0.335-0.133,0.412l-0.001,0C364.762,166.792,364.702,166.803,364.643,166.797z"/>
		<path style="opacity:0.2;fill:#606060;" d="M366.203,184.454c-1.921-0.059-3.309-0.649-4.186-1.183
			c1.381,2.932,4.304,4.497,7.587,4.85l-0.112-1.608C369.492,186.513,369.779,184.563,366.203,184.454z"/>
		<path style="fill:#B97964;" d="M368.996,193.611l0.682-9.775c0,0,3.954-1.442,6.324,0c0,0,1.133,7.315,3.297,9.067
			L368.996,193.611z"/>
		<g>
			<path style="fill:#263238;" d="M361.368,169.926c-0.141,0.566,0.037,1.101,0.408,1.195c0.371,0.093,0.817-0.308,0.939-0.862
				s-0.037-1.101-0.41-1.189C361.932,168.982,361.515,169.362,361.368,169.926z"/>
			<path style="fill:#263238;" d="M362.617,169.057c0,0-1.246-0.239-1.684-1.321c0,0-0.111,1.454,1.464,1.976L362.617,169.057z"/>
		</g>
		<path style="fill:#B97964;" d="M363.849,171.672c-0.633,1.455-0.661,3.102-0.076,4.577c0.79,1.951,2.858,1.658,4.038,0.057
			c1.07-1.45,1.93-4.202,0.46-5.654C366.8,169.199,364.643,169.902,363.849,171.672z"/>
		<path style="fill:#263238;" d="M387.285,166.798c0,0,4.121-3.93,0.824-6.815C384.812,157.098,388.573,163.104,387.285,166.798z"/>
		<path style="fill:#263238;" d="M370.233,161.491c0,0-4.379-3.658-5.873-0.876C362.866,163.397,366.884,160.255,370.233,161.491z"
			/>
		<path style="fill:#263238;" d="M369.771,169.936l-6.466-2.075l0.043-0.145c0.164-0.559-0.156-1.147-0.715-1.311l-1.183-0.348
			c-0.27-0.079-0.556-0.049-0.803,0.086c-0.247,0.135-0.428,0.359-0.507,0.629l-1.236,4.201c-0.105,0.356-0.065,0.73,0.113,1.056
			c0.177,0.325,0.471,0.561,0.826,0.666l0.548,0.162h0c0.13,0.039,0.261,0.057,0.39,0.057c0.6,0,1.154-0.392,1.332-0.995
			l1.019-3.462l6.451,2.07L369.771,169.936z M360.943,166.685c0.103-0.056,0.221-0.068,0.333-0.036l1.183,0.348
			c0.232,0.068,0.364,0.312,0.296,0.543l-0.039,0.131l-2.008-0.644l0.024-0.082C360.765,166.833,360.84,166.741,360.943,166.685z
			 M361.518,171.742c-0.12,0.408-0.548,0.641-0.954,0.521l-0.548-0.162c-0.197-0.058-0.359-0.189-0.458-0.37
			c-0.098-0.18-0.12-0.387-0.063-0.584l1.038-3.526l2.008,0.644L361.518,171.742z"/>
		<path style="fill:#407BFF;" d="M365.596,196.354c0,0,1.024-3.864,7.699-5.255c6.675-1.391,9.302,3.918,9.302,3.918
			L365.596,196.354z"/>
		<path style="opacity:0.5;fill:#FFFFFF;" d="M365.596,196.354c0,0,1.024-3.864,7.699-5.255c6.675-1.391,9.302,3.918,9.302,3.918
			L365.596,196.354z"/>
		<path style="fill:#407BFF;" d="M355.859,249.442c0,0,27.124,3.349,35.779-3.271c0,0-2.512-9.865-1.681-21.148
			c0.831-11.282,4.308-22.41,0.599-28.515c-3.709-6.105-31.142-1.546-36.551,4.018C348.596,206.091,355.859,227.728,355.859,249.442
			z"/>
		<path style="opacity:0.2;" d="M360.11,205.318l-2.241,6.688l-5.044,6.298c0.587,4.63,1.379,9.838,2.008,15.334
			c2.269-2.499,4.526-5.775,6.049-9.928c4.896-13.353,1.005-20.787,1.005-20.787L360.11,205.318z"/>
		<path style="fill:#263238;" d="M365.596,175.284c0,0-8.037,19.873,5.564,19.725c13.6-0.148,16.836-3.445,13.209-6.124
			c-3.627-2.679,8.286-11.54,3.824-22.667c0,0-1.578-8.861-10.645-8.758c0,0-1.99-2.902-5.678-3.412
			c-3.468-0.479-5.897,3.369-4.062,6.35l1.87,3.037C369.679,163.435,362.608,165.702,365.596,175.284z"/>
		<path style="fill:#B97964;" d="M358.84,199.445c0,0-6.656,1.47-7.964,9.84c-1.308,8.37-2.139,14.719-4.578,15.563
			c-2.572,0.891-13.994-8.752-13.994-8.752l0.38-5.619c0.086-1.274-0.609-2.473-1.758-3.031l-0.87-0.423
			c-1.101-0.535-2.413-0.38-3.359,0.397l-0.709,0.583c-0.894,0.734-1.308,1.898-1.085,3.033c0.442,2.254,1.374,5.87,2.954,7.011
			c0,0,16.218,18.654,21.057,16.717c4.839-1.938,8.491-13.671,10.463-18.548C360.949,212.33,363.012,208.046,358.84,199.445z"/>
		<path style="fill:#407BFF;" d="M359.259,198.363c-1.813-1.166-9.35,0.232-11.128,17.541c0,0,5.95,5.023,11.591,4.327
			C359.723,220.232,367.064,203.386,359.259,198.363z"/>
		<g>
			<path style="fill:#407BFF;" d="M347.746,214.243c0,0,5.834,4.969,13.137,4.726l-0.847,1.95c0,0-6.185,1.361-12.561-4.743
				L347.746,214.243z"/>
			<path style="opacity:0.5;fill:#FFFFFF;" d="M347.746,214.243c0,0,5.834,4.969,13.137,4.726l-0.847,1.95
				c0,0-6.185,1.361-12.561-4.743L347.746,214.243z"/>
		</g>
		<polygon style="fill:#407BFF;" points="410.199,396.04 410.993,399.147 420.889,397.26 420.545,394.183 		"/>
		<polygon style="fill:#407BFF;" points="357.772,398.216 357.888,401.307 368.127,401.307 368.745,398.216 		"/>
	</g>
</g>
</svg>
